<svg width="14" height="8" viewBox="0 0 14 8" fill="none" xmlns="http://www.w3.org/2000/svg">
<path d="M13.6317 0.355291C13.5157 0.242666 13.3779 0.153312 13.2262 0.0923467C13.0745 0.0313811 12.9119 -1.08097e-07 12.7477 -1.24411e-07C12.5835 -1.40725e-07 12.4209 0.031381 12.2692 0.0923466C12.1175 0.153312 11.9798 0.242665 11.8638 0.355291L6.99891 5.06911L2.13404 0.35529C1.89961 0.128131 1.58164 0.000513194 1.2501 0.000513161C0.91855 0.000513129 0.60058 0.12813 0.366142 0.35529C0.131704 0.58245 -8.84736e-08 0.890544 -1.20389e-07 1.2118C-1.52305e-07 1.53305 0.131704 1.84114 0.366142 2.0683L6.12123 7.64471C6.23722 7.75733 6.375 7.84669 6.52668 7.90765C6.67836 7.96862 6.84096 8 7.00518 8C7.16939 8 7.33199 7.96862 7.48367 7.90765C7.63535 7.84669 7.77313 7.75734 7.88913 7.64471L13.6442 2.0683C14.1207 1.60664 14.1207 0.829104 13.6317 0.355291Z" fill="#261F67"/>
</svg>
